<svg width="40" height="40" viewBox="0 0 40 40" fill="none" xmlns="http://www.w3.org/2000/svg">
<g clip-path="url(#clip0_461_864)">
<path d="M20.3466 0.275513C20.1177 0.083357 19.8522 -0.00178529 19.5936 -0.000223044C18.9914 0.00368257 18.4219 0.478605 18.4219 1.17302C18.4219 14.1709 4.36172 14.7044 4.36172 27.1063C4.36172 34.6761 11.6051 39.5925 11.9136 39.7979C12.8189 40.4017 13.9883 39.5456 13.6899 38.5013C11.8527 32.0695 12.062 25.3909 17.0182 20.8612C16.1309 24.1333 16.9136 26.7774 19.5936 27.9405C21.5831 28.8044 24.1858 28.6607 26.3394 28.3373C28.7515 30.4659 27.0252 35.401 25.5754 38.299C25.0404 39.3699 26.2808 40.4603 27.2736 39.7979C32.5243 36.2977 35.3309 31.9039 35.6152 26.7376C36.1885 16.3182 25.9652 4.9888 20.3466 0.275513Z" fill="#FFDF8E"/>
<path d="M35.6152 26.7376C35.3309 31.9039 32.5243 36.2977 27.2736 39.7979C26.2808 40.4603 25.0404 39.3699 25.5754 38.299C27.0252 35.401 28.7515 30.4659 26.3394 28.3373C24.1858 28.6607 21.5831 28.8044 19.5936 27.9405V-0.000223044C19.8521 -0.00178529 20.1177 0.083357 20.3466 0.275513C25.9652 4.9888 36.1885 16.3182 35.6152 26.7376Z" fill="#FFB64C"/>
</g>
<defs>
<clipPath id="clip0_461_864">
<rect width="40" height="40" fill="white"/>
</clipPath>
</defs>
</svg>
